{
  "header": {
    "PPQ": 960,
    "bpm": 120,
    "timeSignature": [
      4,
      4
    ],
    "name": "Track 0"
  },
  "tempo": [
    {
      "absoluteTime": 0,
      "seconds": 0,
      "bpm": 120
    }
  ],
  "timeSignature": [
    {
      "absoluteTime": 0,
      "seconds": 0,
      "numerator": 4,
      "denominator": 2,
      "click": 24,
      "notesQ": 8
    }
  ],
  "startTime": 0,
  "duration": 174.25,
  "tracks": [
    {
      "startTime": 0,
      "duration": 0,
      "length": 0,
      "notes": [],
      "controlChanges": {},
      "id": 0,
      "name": "Track 0"
    },
    {
      "startTime": 1,
      "duration": 174.25,
      "length": 393,
      "notes": [
        {
          "name": "G5",
          "midi": 79,
          "time": 1,
          "velocity": 1,
          "duration": 0.25
        },
        {
          "name": "F#5",
          "midi": 78,
          "time": 1.25,
          "velocity": 1,
          "duration": 0.25
        },
        {
          "name": "E5",
          "midi": 76,
          "time": 1.5,
          "velocity": 1,
          "duration": 0.25
        },
        {
          "name": "E5",
          "midi": 76,
          "time": 1.75,
          "velocity": 1,
          "duration": 0.25
        },
        {
          "name": "F#5",
          "midi": 78,
          "time": 2,
          "velocity": 1,
          "duration": 0.25
        },
        {
          "name": "A4",
          "midi": 69,
          "time": 4.75,
          "velocity": 1,
          "duration": 0.25
        },
        {
          "name": "G5",
          "midi": 79,
          "time": 5,
          "velocity": 1,
          "duration": 0.25
        },
        {
          "name": "F#5",
          "midi": 78,
          "time": 5.25,
          "velocity": 1,
          "duration": 0.25
        },
        {
          "name": "E5",
          "midi": 76,
          "time": 5.5,
          "velocity": 1,
          "duration": 0.25
        },
        {
          "name": "E5",
          "midi": 76,
          "time": 5.75,
          "velocity": 1,
          "duration": 0.5
        },
        {
          "name": "F#5",
          "midi": 78,
          "time": 6.25,
          "velocity": 1,
          "duration": 0.25
        },
        {
          "name": "D5",
          "midi": 74,
          "time": 7,
          "velocity": 1,
          "duration": 0.5
        },
        {
          "name": "E5",
          "midi": 76,
          "time": 7.5,
          "velocity": 1,
          "duration": 0.25
        },
        {
          "name": "A4",
          "midi": 69,
          "time": 7.75,
          "velocity": 1,
          "duration": 0.5
        },
        {
          "name": "A4",
          "midi": 69,
          "time": 9.75,
          "velocity": 1,
          "duration": 0.25
        },
        {
          "name": "E5",
          "midi": 76,
          "time": 10,
          "velocity": 1,
          "duration": 0.5
        },
        {
          "name": "F#5",
          "midi": 78,
          "time": 10.5,
          "velocity": 1,
          "duration": 0.25
        },
        {
          "name": "G5",
          "midi": 79,
          "time": 10.75,
          "velocity": 1,
          "duration": 0.75
        },
        {
          "name": "E5",
          "midi": 76,
          "time": 11.5,
          "velocity": 1,
          "duration": 0.25
        },
        {
          "name": "C#5",
          "midi": 73,
          "time": 11.75,
          "velocity": 1,
          "duration": 0.5
        },
        {
          "name": "D5",
          "midi": 74,
          "time": 12.25,
          "velocity": 1,
          "duration": 0.75
        },
        {
          "name": "E5",
          "midi": 76,
          "time": 13,
          "velocity": 1,
          "duration": 0.5
        },
        {
          "name": "A4",
          "midi": 69,
          "time": 13.5,
          "velocity": 1,
          "duration": 0.25
        },
        {
          "name": "A4",
          "midi": 69,
          "time": 13.75,
          "velocity": 1,
          "duration": 0.5
        },
        {
          "name": "F#5",
          "midi": 78,
          "time": 14.25,
          "velocity": 1,
          "duration": 0.5
        },
        {
          "name": "G5",
          "midi": 79,
          "time": 17,
          "velocity": 1,
          "duration": 0.25
        },
        {
          "name": "F#5",
          "midi": 78,
          "time": 17.25,
          "velocity": 1,
          "duration": 0.25
        },
        {
          "name": "E5",
          "midi": 76,
          "time": 17.5,
          "velocity": 1,
          "duration": 0.25
        },
        {
          "name": "E5",
          "midi": 76,
          "time": 17.75,
          "velocity": 1,
          "duration": 0.25
        },
        {
          "name": "F#5",
          "midi": 78,
          "time": 18,
          "velocity": 1,
          "duration": 0.25
        },
        {
          "name": "A4",
          "midi": 69,
          "time": 20.75,
          "velocity": 1,
          "duration": 0.25
        },
        {
          "name": "G5",
          "midi": 79,
          "time": 21,
          "velocity": 1,
          "duration": 0.25
        },
        {
          "name": "F#5",
          "midi": 78,
          "time": 21.25,
          "velocity": 1,
          "duration": 0.25
        },
        {
          "name": "E5",
          "midi": 76,
          "time": 21.5,
          "velocity": 1,
          "duration": 0.25
        },
        {
          "name": "E5",
          "midi": 76,
          "time": 21.75,
          "velocity": 1,
          "duration": 0.5
        },
        {
          "name": "F#5",
          "midi": 78,
          "time": 22.5,
          "velocity": 1,
          "duration": 0.25
        },
        {
          "name": "D5",
          "midi": 74,
          "time": 22.75,
          "velocity": 1,
          "duration": 0.5
        },
        {
          "name": "E5",
          "midi": 76,
          "time": 23.5,
          "velocity": 1,
          "duration": 0.25
        },
        {
          "name": "A4",
          "midi": 69,
          "time": 23.75,
          "velocity": 1,
          "duration": 0.5
        },
        {
          "name": "E5",
          "midi": 76,
          "time": 26,
          "velocity": 1,
          "duration": 0.5
        },
        {
          "name": "F#5",
          "midi": 78,
          "time": 26.5,
          "velocity": 1,
          "duration": 0.25
        },
        {
          "name": "G5",
          "midi": 79,
          "time": 26.75,
          "velocity": 1,
          "duration": 0.75
        },
        {
          "name": "E5",
          "midi": 76,
          "time": 27.5,
          "velocity": 1,
          "duration": 0.25
        },
        {
          "name": "C#5",
          "midi": 73,
          "time": 27.75,
          "velocity": 1,
          "duration": 0.75
        },
        {
          "name": "D5",
          "midi": 74,
          "time": 28.5,
          "velocity": 1,
          "duration": 0.25
        },
        {
          "name": "E5",
          "midi": 76,
          "time": 28.75,
          "velocity": 1,
          "duration": 0.25
        },
        {
          "name": "A4",
          "midi": 69,
          "time": 29.25,
          "velocity": 1,
          "duration": 0.25
        },
        {
          "name": "D5",
          "midi": 74,
          "time": 29.5,
          "velocity": 1,
          "duration": 0.25
        },
        {
          "name": "E5",
          "midi": 76,
          "time": 29.75,
          "velocity": 1,
          "duration": 0.25
        },
        {
          "name": "F5",
          "midi": 77,
          "time": 30,
          "velocity": 1,
          "duration": 0.25
        },
        {
          "name": "E5",
          "midi": 76,
          "time": 30.25,
          "velocity": 1,
          "duration": 0.25
        },
        {
          "name": "D5",
          "midi": 74,
          "time": 30.5,
          "velocity": 1,
          "duration": 0.25
        },
        {
          "name": "C5",
          "midi": 72,
          "time": 30.75,
          "velocity": 1,
          "duration": 0.25
        },
        {
          "name": "A4",
          "midi": 69,
          "time": 31.5,
          "velocity": 1,
          "duration": 0.25
        },
        {
          "name": "A#4",
          "midi": 70,
          "time": 31.75,
          "velocity": 1,
          "duration": 0.25
        },
        {
          "name": "C5",
          "midi": 72,
          "time": 32,
          "velocity": 1,
          "duration": 0.5
        },
        {
          "name": "F5",
          "midi": 77,
          "time": 32.5,
          "velocity": 1,
          "duration": 0.5
        },
        {
          "name": "E5",
          "midi": 76,
          "time": 33,
          "velocity": 1,
          "duration": 0.25
        },
        {
          "name": "D5",
          "midi": 74,
          "time": 33.25,
          "velocity": 1,
          "duration": 0.25
        },
        {
          "name": "D5",
          "midi": 74,
          "time": 33.5,
          "velocity": 1,
          "duration": 0.25
        },
        {
          "name": "C5",
          "midi": 72,
          "time": 33.75,
          "velocity": 1,
          "duration": 0.25
        },
        {
          "name": "D5",
          "midi": 74,
          "time": 34,
          "velocity": 1,
          "duration": 0.25
        },
        {
          "name": "C5",
          "midi": 72,
          "time": 34.25,
          "velocity": 1,
          "duration": 0.25
        },
        {
          "name": "C5",
          "midi": 72,
          "time": 34.5,
          "velocity": 1,
          "duration": 0.5
        },
        {
          "name": "C5",
          "midi": 72,
          "time": 35,
          "velocity": 1,
          "duration": 0.25
        },
        {
          "name": "A4",
          "midi": 69,
          "time": 35.5,
          "velocity": 1,
          "duration": 0.25
        },
        {
          "name": "A#4",
          "midi": 70,
          "time": 35.75,
          "velocity": 1,
          "duration": 0.25
        },
        {
          "name": "C5",
          "midi": 72,
          "time": 36,
          "velocity": 1,
          "duration": 0.5
        },
        {
          "name": "F5",
          "midi": 77,
          "time": 36.5,
          "velocity": 1,
          "duration": 0.5
        },
        {
          "name": "G5",
          "midi": 79,
          "time": 37,
          "velocity": 1,
          "duration": 0.25
        },
        {
          "name": "F5",
          "midi": 77,
          "time": 37.25,
          "velocity": 1,
          "duration": 0.25
        },
        {
          "name": "E5",
          "midi": 76,
          "time": 37.5,
          "velocity": 1,
          "duration": 0.25
        },
        {
          "name": "D5",
          "midi": 74,
          "time": 37.75,
          "velocity": 1,
          "duration": 0.25
        },
        {
          "name": "D5",
          "midi": 74,
          "time": 38,
          "velocity": 1,
          "duration": 0.25
        },
        {
          "name": "E5",
          "midi": 76,
          "time": 38.25,
          "velocity": 1,
          "duration": 0.25
        },
        {
          "name": "F5",
          "midi": 77,
          "time": 38.5,
          "velocity": 1,
          "duration": 0.5
        },
        {
          "name": "F5",
          "midi": 77,
          "time": 39,
          "velocity": 1,
          "duration": 0.25
        },
        {
          "name": "G5",
          "midi": 79,
          "time": 39.5,
          "velocity": 1,
          "duration": 0.25
        },
        {
          "name": "A5",
          "midi": 81,
          "time": 39.75,
          "velocity": 1,
          "duration": 0.25
        },
        {
          "name": "A#5",
          "midi": 82,
          "time": 40,
          "velocity": 1,
          "duration": 0.25
        },
        {
          "name": "A#5",
          "midi": 82,
          "time": 40.25,
          "velocity": 1,
          "duration": 0.25
        },
        {
          "name": "A5",
          "midi": 81,
          "time": 40.5,
          "velocity": 1,
          "duration": 0.5
        },
        {
          "name": "G5",
          "midi": 79,
          "time": 41,
          "velocity": 1,
          "duration": 0.5
        },
        {
          "name": "F5",
          "midi": 77,
          "time": 41.5,
          "velocity": 1,
          "duration": 0.25
        },
        {
          "name": "G5",
          "midi": 79,
          "time": 41.75,
          "velocity": 1,
          "duration": 0.25
        },
        {
          "name": "A5",
          "midi": 81,
          "time": 42,
          "velocity": 1,
          "duration": 0.25
        },
        {
          "name": "A5",
          "midi": 81,
          "time": 42.25,
          "velocity": 1,
          "duration": 0.25
        },
        {
          "name": "G5",
          "midi": 79,
          "time": 42.5,
          "velocity": 1,
          "duration": 0.5
        },
        {
          "name": "F5",
          "midi": 77,
          "time": 43,
          "velocity": 1,
          "duration": 0.5
        },
        {
          "name": "D5",
          "midi": 74,
          "time": 43.5,
          "velocity": 1,
          "duration": 0.25
        },
        {
          "name": "C5",
          "midi": 72,
          "time": 43.75,
          "velocity": 1,
          "duration": 0.25
        },
        {
          "name": "D5",
          "midi": 74,
          "time": 44,
          "velocity": 1,
          "duration": 0.25
        },
        {
          "name": "F5",
          "midi": 77,
          "time": 44.25,
          "velocity": 1,
          "duration": 0.25
        },
        {
          "name": "F5",
          "midi": 77,
          "time": 44.5,
          "velocity": 1,
          "duration": 0.25
        },
        {
          "name": "E5",
          "midi": 76,
          "time": 44.75,
          "velocity": 1,
          "duration": 0.5
        },
        {
          "name": "E5",
          "midi": 76,
          "time": 45.25,
          "velocity": 1,
          "duration": 0.25
        },
        {
          "name": "F#5",
          "midi": 78,
          "time": 45.5,
          "velocity": 1,
          "duration": 0.25
        },
        {
          "name": "F#5",
          "midi": 78,
          "time": 45.75,
          "velocity": 1,
          "duration": 1
        },
        {
          "name": "A4",
          "midi": 69,
          "time": 52.75,
          "velocity": 1,
          "duration": 0.25
        },
        {
          "name": "G5",
          "midi": 79,
          "time": 53,
          "velocity": 1,
          "duration": 0.25
        },
        {
          "name": "F#5",
          "midi": 78,
          "time": 53.25,
          "velocity": 1,
          "duration": 0.25
        },
        {
          "name": "E5",
          "midi": 76,
          "time": 53.5,
          "velocity": 1,
          "duration": 0.25
        },
        {
          "name": "E5",
          "midi": 76,
          "time": 53.75,
          "velocity": 1,
          "duration": 0.25
        },
        {
          "name": "F#5",
          "midi": 78,
          "time": 54,
          "velocity": 1,
          "duration": 0.25
        },
        {
          "name": "G5",
          "midi": 79,
          "time": 57,
          "velocity": 1,
          "duration": 0.25
        },
        {
          "name": "F#5",
          "midi": 78,
          "time": 57.25,
          "velocity": 1,
          "duration": 0.25
        },
        {
          "name": "E5",
          "midi": 76,
          "time": 57.5,
          "velocity": 1,
          "duration": 0.25
        },
        {
          "name": "E5",
          "midi": 76,
          "time": 57.75,
          "velocity": 1,
          "duration": 0.75
        },
        {
          "name": "F#5",
          "midi": 78,
          "time": 58.5,
          "velocity": 1,
          "duration": 0.25
        },
        {
          "name": "D5",
          "midi": 74,
          "time": 58.75,
          "velocity": 1,
          "duration": 0.5
        },
        {
          "name": "E5",
          "midi": 76,
          "time": 59.25,
          "velocity": 1,
          "duration": 0.5
        },
        {
          "name": "A4",
          "midi": 69,
          "time": 59.75,
          "velocity": 1,
          "duration": 0.5
        },
        {
          "name": "E5",
          "midi": 76,
          "time": 62,
          "velocity": 1,
          "duration": 0.5
        },
        {
          "name": "F#5",
          "midi": 78,
          "time": 62.5,
          "velocity": 1,
          "duration": 0.25
        },
        {
          "name": "G5",
          "midi": 79,
          "time": 62.75,
          "velocity": 1,
          "duration": 0.75
        },
        {
          "name": "E5",
          "midi": 76,
          "time": 63.5,
          "velocity": 1,
          "duration": 0.5
        },
        {
          "name": "C#5",
          "midi": 73,
          "time": 64,
          "velocity": 1,
          "duration": 0.5
        },
        {
          "name": "D5",
          "midi": 74,
          "time": 64.5,
          "velocity": 1,
          "duration": 0.25
        },
        {
          "name": "E5",
          "midi": 76,
          "time": 64.75,
          "velocity": 1,
          "duration": 0.75
        },
        {
          "name": "A4",
          "midi": 69,
          "time": 65.5,
          "velocity": 1,
          "duration": 0.25
        },
        {
          "name": "A4",
          "midi": 69,
          "time": 65.75,
          "velocity": 1,
          "duration": 0.5
        },
        {
          "name": "F#5",
          "midi": 78,
          "time": 66.25,
          "velocity": 1,
          "duration": 0.5
        },
        {
          "name": "A4",
          "midi": 69,
          "time": 68.75,
          "velocity": 1,
          "duration": 0.25
        },
        {
          "name": "D5",
          "midi": 74,
          "time": 68.75,
          "velocity": 1,
          "duration": 0.25
        },
        {
          "name": "G5",
          "midi": 79,
          "time": 69,
          "velocity": 1,
          "duration": 0.25
        },
        {
          "name": "B5",
          "midi": 83,
          "time": 69,
          "velocity": 1,
          "duration": 0.25
        },
        {
          "name": "F#5",
          "midi": 78,
          "time": 69.25,
          "velocity": 1,
          "duration": 0.25
        },
        {
          "name": "A5",
          "midi": 81,
          "time": 69.25,
          "velocity": 1,
          "duration": 0.25
        },
        {
          "name": "E5",
          "midi": 76,
          "time": 69.5,
          "velocity": 1,
          "duration": 0.25
        },
        {
          "name": "G5",
          "midi": 79,
          "time": 69.5,
          "velocity": 1,
          "duration": 0.25
        },
        {
          "name": "E5",
          "midi": 76,
          "time": 69.75,
          "velocity": 1,
          "duration": 0.25
        },
        {
          "name": "G5",
          "midi": 79,
          "time": 69.75,
          "velocity": 1,
          "duration": 0.25
        },
        {
          "name": "F#5",
          "midi": 78,
          "time": 70,
          "velocity": 1,
          "duration": 0.25
        },
        {
          "name": "A5",
          "midi": 81,
          "time": 70,
          "velocity": 1,
          "duration": 0.25
        },
        {
          "name": "A4",
          "midi": 69,
          "time": 72.75,
          "velocity": 1,
          "duration": 0.25
        },
        {
          "name": "D5",
          "midi": 74,
          "time": 72.75,
          "velocity": 1,
          "duration": 0.25
        },
        {
          "name": "G5",
          "midi": 79,
          "time": 73,
          "velocity": 1,
          "duration": 0.25
        },
        {
          "name": "B5",
          "midi": 83,
          "time": 73,
          "velocity": 1,
          "duration": 0.25
        },
        {
          "name": "F#5",
          "midi": 78,
          "time": 73.25,
          "velocity": 1,
          "duration": 0.25
        },
        {
          "name": "A5",
          "midi": 81,
          "time": 73.25,
          "velocity": 1,
          "duration": 0.25
        },
        {
          "name": "E5",
          "midi": 76,
          "time": 73.5,
          "velocity": 1,
          "duration": 0.25
        },
        {
          "name": "G5",
          "midi": 79,
          "time": 73.5,
          "velocity": 1,
          "duration": 0.25
        },
        {
          "name": "E5",
          "midi": 76,
          "time": 73.75,
          "velocity": 1,
          "duration": 0.5
        },
        {
          "name": "G5",
          "midi": 79,
          "time": 73.75,
          "velocity": 1,
          "duration": 0.5
        },
        {
          "name": "F#5",
          "midi": 78,
          "time": 74.5,
          "velocity": 1,
          "duration": 0.25
        },
        {
          "name": "A5",
          "midi": 81,
          "time": 74.5,
          "velocity": 1,
          "duration": 0.25
        },
        {
          "name": "D5",
          "midi": 74,
          "time": 74.75,
          "velocity": 1,
          "duration": 0.5
        },
        {
          "name": "F#5",
          "midi": 78,
          "time": 74.75,
          "velocity": 1,
          "duration": 0.5
        },
        {
          "name": "E5",
          "midi": 76,
          "time": 75.5,
          "velocity": 1,
          "duration": 0.25
        },
        {
          "name": "G5",
          "midi": 79,
          "time": 75.5,
          "velocity": 1,
          "duration": 0.25
        },
        {
          "name": "A4",
          "midi": 69,
          "time": 75.75,
          "velocity": 1,
          "duration": 0.5
        },
        {
          "name": "D5",
          "midi": 74,
          "time": 75.75,
          "velocity": 1,
          "duration": 0.5
        },
        {
          "name": "E5",
          "midi": 76,
          "time": 78,
          "velocity": 1,
          "duration": 0.5
        },
        {
          "name": "F#5",
          "midi": 78,
          "time": 78.5,
          "velocity": 1,
          "duration": 0.25
        },
        {
          "name": "G5",
          "midi": 79,
          "time": 78.75,
          "velocity": 1,
          "duration": 0.75
        },
        {
          "name": "E5",
          "midi": 76,
          "time": 79.5,
          "velocity": 1,
          "duration": 0.5
        },
        {
          "name": "C#5",
          "midi": 73,
          "time": 80,
          "velocity": 1,
          "duration": 0.5
        },
        {
          "name": "D5",
          "midi": 74,
          "time": 80.5,
          "velocity": 1,
          "duration": 0.25
        },
        {
          "name": "E5",
          "midi": 76,
          "time": 80.75,
          "velocity": 1,
          "duration": 0.25
        },
        {
          "name": "A4",
          "midi": 69,
          "time": 81.25,
          "velocity": 1,
          "duration": 0.25
        },
        {
          "name": "D5",
          "midi": 74,
          "time": 81.5,
          "velocity": 1,
          "duration": 0.25
        },
        {
          "name": "E5",
          "midi": 76,
          "time": 81.75,
          "velocity": 1,
          "duration": 0.25
        },
        {
          "name": "F5",
          "midi": 77,
          "time": 82,
          "velocity": 1,
          "duration": 0.25
        },
        {
          "name": "E5",
          "midi": 76,
          "time": 82.25,
          "velocity": 1,
          "duration": 0.25
        },
        {
          "name": "D5",
          "midi": 74,
          "time": 82.5,
          "velocity": 1,
          "duration": 0.25
        },
        {
          "name": "C5",
          "midi": 72,
          "time": 82.75,
          "velocity": 1,
          "duration": 0.25
        },
        {
          "name": "A4",
          "midi": 69,
          "time": 83.5,
          "velocity": 1,
          "duration": 0.25
        },
        {
          "name": "A#4",
          "midi": 70,
          "time": 83.75,
          "velocity": 1,
          "duration": 0.25
        },
        {
          "name": "C5",
          "midi": 72,
          "time": 84,
          "velocity": 1,
          "duration": 0.5
        },
        {
          "name": "F5",
          "midi": 77,
          "time": 84.5,
          "velocity": 1,
          "duration": 0.5
        },
        {
          "name": "E5",
          "midi": 76,
          "time": 85,
          "velocity": 1,
          "duration": 0.25
        },
        {
          "name": "D5",
          "midi": 74,
          "time": 85.25,
          "velocity": 1,
          "duration": 0.25
        },
        {
          "name": "D5",
          "midi": 74,
          "time": 85.5,
          "velocity": 1,
          "duration": 0.25
        },
        {
          "name": "C5",
          "midi": 72,
          "time": 85.75,
          "velocity": 1,
          "duration": 0.25
        },
        {
          "name": "D5",
          "midi": 74,
          "time": 86,
          "velocity": 1,
          "duration": 0.25
        },
        {
          "name": "C5",
          "midi": 72,
          "time": 86.25,
          "velocity": 1,
          "duration": 0.25
        },
        {
          "name": "C5",
          "midi": 72,
          "time": 86.5,
          "velocity": 1,
          "duration": 0.5
        },
        {
          "name": "C5",
          "midi": 72,
          "time": 87,
          "velocity": 1,
          "duration": 0.5
        },
        {
          "name": "A4",
          "midi": 69,
          "time": 87.5,
          "velocity": 1,
          "duration": 0.25
        },
        {
          "name": "A#4",
          "midi": 70,
          "time": 87.75,
          "velocity": 1,
          "duration": 0.25
        },
        {
          "name": "C5",
          "midi": 72,
          "time": 88,
          "velocity": 1,
          "duration": 0.5
        },
        {
          "name": "F5",
          "midi": 77,
          "time": 88.5,
          "velocity": 1,
          "duration": 0.5
        },
        {
          "name": "G5",
          "midi": 79,
          "time": 89,
          "velocity": 1,
          "duration": 0.25
        },
        {
          "name": "F5",
          "midi": 77,
          "time": 89.25,
          "velocity": 1,
          "duration": 0.25
        },
        {
          "name": "E5",
          "midi": 76,
          "time": 89.5,
          "velocity": 1,
          "duration": 0.25
        },
        {
          "name": "D5",
          "midi": 74,
          "time": 89.75,
          "velocity": 1,
          "duration": 0.25
        },
        {
          "name": "D5",
          "midi": 74,
          "time": 90,
          "velocity": 1,
          "duration": 0.25
        },
        {
          "name": "E5",
          "midi": 76,
          "time": 90.25,
          "velocity": 1,
          "duration": 0.25
        },
        {
          "name": "F5",
          "midi": 77,
          "time": 90.5,
          "velocity": 1,
          "duration": 0.5
        },
        {
          "name": "F5",
          "midi": 77,
          "time": 91,
          "velocity": 1,
          "duration": 0.5
        },
        {
          "name": "G5",
          "midi": 79,
          "time": 91.5,
          "velocity": 1,
          "duration": 0.25
        },
        {
          "name": "A5",
          "midi": 81,
          "time": 91.75,
          "velocity": 1,
          "duration": 0.25
        },
        {
          "name": "A#5",
          "midi": 82,
          "time": 92,
          "velocity": 1,
          "duration": 0.25
        },
        {
          "name": "A#5",
          "midi": 82,
          "time": 92.25,
          "velocity": 1,
          "duration": 0.25
        },
        {
          "name": "A5",
          "midi": 81,
          "time": 92.5,
          "velocity": 1,
          "duration": 0.5
        },
        {
          "name": "G5",
          "midi": 79,
          "time": 93,
          "velocity": 1,
          "duration": 0.5
        },
        {
          "name": "F5",
          "midi": 77,
          "time": 93.5,
          "velocity": 1,
          "duration": 0.25
        },
        {
          "name": "G5",
          "midi": 79,
          "time": 93.75,
          "velocity": 1,
          "duration": 0.25
        },
        {
          "name": "A5",
          "midi": 81,
          "time": 94,
          "velocity": 1,
          "duration": 0.25
        },
        {
          "name": "A5",
          "midi": 81,
          "time": 94.25,
          "velocity": 1,
          "duration": 0.25
        },
        {
          "name": "G5",
          "midi": 79,
          "time": 94.5,
          "velocity": 1,
          "duration": 0.25
        },
        {
          "name": "F5",
          "midi": 77,
          "time": 94.75,
          "velocity": 1,
          "duration": 0.25
        },
        {
          "name": "F5",
          "midi": 77,
          "time": 95,
          "velocity": 1,
          "duration": 0.5
        },
        {
          "name": "D5",
          "midi": 74,
          "time": 95.5,
          "velocity": 1,
          "duration": 0.25
        },
        {
          "name": "C5",
          "midi": 72,
          "time": 95.75,
          "velocity": 1,
          "duration": 0.25
        },
        {
          "name": "D5",
          "midi": 74,
          "time": 96,
          "velocity": 1,
          "duration": 0.25
        },
        {
          "name": "F5",
          "midi": 77,
          "time": 96.25,
          "velocity": 1,
          "duration": 0.25
        },
        {
          "name": "F5",
          "midi": 77,
          "time": 96.5,
          "velocity": 1,
          "duration": 0.25
        },
        {
          "name": "E5",
          "midi": 76,
          "time": 96.75,
          "velocity": 1,
          "duration": 0.5
        },
        {
          "name": "E5",
          "midi": 76,
          "time": 97.25,
          "velocity": 1,
          "duration": 0.25
        },
        {
          "name": "F#5",
          "midi": 78,
          "time": 97.5,
          "velocity": 1,
          "duration": 0.25
        },
        {
          "name": "F#5",
          "midi": 78,
          "time": 97.75,
          "velocity": 1,
          "duration": 1
        },
        {
          "name": "G5",
          "midi": 79,
          "time": 105,
          "velocity": 1,
          "duration": 0.125
        },
        {
          "name": "G5",
          "midi": 79,
          "time": 105.125,
          "velocity": 1,
          "duration": 0.125
        },
        {
          "name": "F#5",
          "midi": 78,
          "time": 105.25,
          "velocity": 1,
          "duration": 0.25
        },
        {
          "name": "E5",
          "midi": 76,
          "time": 105.5,
          "velocity": 1,
          "duration": 0.25
        },
        {
          "name": "E5",
          "midi": 76,
          "time": 105.75,
          "velocity": 1,
          "duration": 0.375
        },
        {
          "name": "F#5",
          "midi": 78,
          "time": 106.125,
          "velocity": 1,
          "duration": 0.375
        },
        {
          "name": "A4",
          "midi": 69,
          "time": 108.75,
          "velocity": 1,
          "duration": 0.25
        },
        {
          "name": "G5",
          "midi": 79,
          "time": 109,
          "velocity": 1,
          "duration": 0.25
        },
        {
          "name": "F#5",
          "midi": 78,
          "time": 109.25,
          "velocity": 1,
          "duration": 0.25
        },
        {
          "name": "E5",
          "midi": 76,
          "time": 109.5,
          "velocity": 1,
          "duration": 0.25
        },
        {
          "name": "E5",
          "midi": 76,
          "time": 109.75,
          "velocity": 1,
          "duration": 0.5
        },
        {
          "name": "F#5",
          "midi": 78,
          "time": 110.5,
          "velocity": 1,
          "duration": 0.25
        },
        {
          "name": "D5",
          "midi": 74,
          "time": 110.75,
          "velocity": 1,
          "duration": 0.5
        },
        {
          "name": "E5",
          "midi": 76,
          "time": 111.5,
          "velocity": 1,
          "duration": 0.25
        },
        {
          "name": "A4",
          "midi": 69,
          "time": 111.75,
          "velocity": 1,
          "duration": 0.5
        },
        {
          "name": "E5",
          "midi": 76,
          "time": 114,
          "velocity": 1,
          "duration": 0.5
        },
        {
          "name": "F#5",
          "midi": 78,
          "time": 114.5,
          "velocity": 1,
          "duration": 0.25
        },
        {
          "name": "G5",
          "midi": 79,
          "time": 114.75,
          "velocity": 1,
          "duration": 0.75
        },
        {
          "name": "E5",
          "midi": 76,
          "time": 115.5,
          "velocity": 1,
          "duration": 0.5
        },
        {
          "name": "C#5",
          "midi": 73,
          "time": 116,
          "velocity": 1,
          "duration": 0.5
        },
        {
          "name": "D5",
          "midi": 74,
          "time": 116.5,
          "velocity": 1,
          "duration": 0.25
        },
        {
          "name": "E5",
          "midi": 76,
          "time": 116.75,
          "velocity": 1,
          "duration": 0.75
        },
        {
          "name": "A4",
          "midi": 69,
          "time": 117.5,
          "velocity": 1,
          "duration": 0.25
        },
        {
          "name": "A4",
          "midi": 69,
          "time": 117.75,
          "velocity": 1,
          "duration": 0.5
        },
        {
          "name": "F#5",
          "midi": 78,
          "time": 118.25,
          "velocity": 1,
          "duration": 0.5
        },
        {
          "name": "G5",
          "midi": 79,
          "time": 121,
          "velocity": 1,
          "duration": 0.25
        },
        {
          "name": "B5",
          "midi": 83,
          "time": 121,
          "velocity": 1,
          "duration": 0.25
        },
        {
          "name": "F#5",
          "midi": 78,
          "time": 121.25,
          "velocity": 1,
          "duration": 0.25
        },
        {
          "name": "A5",
          "midi": 81,
          "time": 121.25,
          "velocity": 1,
          "duration": 0.25
        },
        {
          "name": "E5",
          "midi": 76,
          "time": 121.5,
          "velocity": 1,
          "duration": 0.25
        },
        {
          "name": "G5",
          "midi": 79,
          "time": 121.5,
          "velocity": 1,
          "duration": 0.25
        },
        {
          "name": "E5",
          "midi": 76,
          "time": 121.75,
          "velocity": 1,
          "duration": 0.3125
        },
        {
          "name": "G5",
          "midi": 79,
          "time": 121.75,
          "velocity": 1,
          "duration": 0.3125
        },
        {
          "name": "F#5",
          "midi": 78,
          "time": 122.0625,
          "velocity": 1,
          "duration": 0.25
        },
        {
          "name": "A5",
          "midi": 81,
          "time": 122.0625,
          "velocity": 1,
          "duration": 0.25
        },
        {
          "name": "G5",
          "midi": 79,
          "time": 125,
          "velocity": 1,
          "duration": 0.25
        },
        {
          "name": "B5",
          "midi": 83,
          "time": 125,
          "velocity": 1,
          "duration": 0.25
        },
        {
          "name": "F#5",
          "midi": 78,
          "time": 125.25,
          "velocity": 1,
          "duration": 0.25
        },
        {
          "name": "A5",
          "midi": 81,
          "time": 125.25,
          "velocity": 1,
          "duration": 0.25
        },
        {
          "name": "E5",
          "midi": 76,
          "time": 125.5,
          "velocity": 1,
          "duration": 0.25
        },
        {
          "name": "G5",
          "midi": 79,
          "time": 125.5,
          "velocity": 1,
          "duration": 0.25
        },
        {
          "name": "E5",
          "midi": 76,
          "time": 125.75,
          "velocity": 1,
          "duration": 0.5
        },
        {
          "name": "G5",
          "midi": 79,
          "time": 125.75,
          "velocity": 1,
          "duration": 0.5
        },
        {
          "name": "F#5",
          "midi": 78,
          "time": 126.5,
          "velocity": 1,
          "duration": 0.25
        },
        {
          "name": "A5",
          "midi": 81,
          "time": 126.5,
          "velocity": 1,
          "duration": 0.25
        },
        {
          "name": "D5",
          "midi": 74,
          "time": 126.75,
          "velocity": 1,
          "duration": 0.5
        },
        {
          "name": "F#5",
          "midi": 78,
          "time": 126.75,
          "velocity": 1,
          "duration": 0.5
        },
        {
          "name": "E5",
          "midi": 76,
          "time": 127.5,
          "velocity": 1,
          "duration": 0.25
        },
        {
          "name": "G5",
          "midi": 79,
          "time": 127.5,
          "velocity": 1,
          "duration": 0.25
        },
        {
          "name": "A4",
          "midi": 69,
          "time": 127.75,
          "velocity": 1,
          "duration": 0.5
        },
        {
          "name": "D5",
          "midi": 74,
          "time": 127.75,
          "velocity": 1,
          "duration": 0.5
        },
        {
          "name": "E5",
          "midi": 76,
          "time": 130,
          "velocity": 1,
          "duration": 0.5
        },
        {
          "name": "F#5",
          "midi": 78,
          "time": 130.5,
          "velocity": 1,
          "duration": 0.25
        },
        {
          "name": "G5",
          "midi": 79,
          "time": 130.75,
          "velocity": 1,
          "duration": 0.75
        },
        {
          "name": "E5",
          "midi": 76,
          "time": 131.5,
          "velocity": 1,
          "duration": 0.5
        },
        {
          "name": "C#5",
          "midi": 73,
          "time": 132,
          "velocity": 1,
          "duration": 0.5
        },
        {
          "name": "D5",
          "midi": 74,
          "time": 132.5,
          "velocity": 1,
          "duration": 0.25
        },
        {
          "name": "E5",
          "midi": 76,
          "time": 132.75,
          "velocity": 1,
          "duration": 0.25
        },
        {
          "name": "A4",
          "midi": 69,
          "time": 133.25,
          "velocity": 1,
          "duration": 0.25
        },
        {
          "name": "D5",
          "midi": 74,
          "time": 133.5,
          "velocity": 1,
          "duration": 0.25
        },
        {
          "name": "E5",
          "midi": 76,
          "time": 133.75,
          "velocity": 1,
          "duration": 0.25
        },
        {
          "name": "F5",
          "midi": 77,
          "time": 134,
          "velocity": 1,
          "duration": 0.25
        },
        {
          "name": "E5",
          "midi": 76,
          "time": 134.25,
          "velocity": 1,
          "duration": 0.25
        },
        {
          "name": "D5",
          "midi": 74,
          "time": 134.5,
          "velocity": 1,
          "duration": 0.25
        },
        {
          "name": "C5",
          "midi": 72,
          "time": 134.75,
          "velocity": 1,
          "duration": 0.25
        },
        {
          "name": "A4",
          "midi": 69,
          "time": 135.5,
          "velocity": 1,
          "duration": 0.25
        },
        {
          "name": "A#4",
          "midi": 70,
          "time": 135.75,
          "velocity": 1,
          "duration": 0.25
        },
        {
          "name": "C5",
          "midi": 72,
          "time": 136,
          "velocity": 1,
          "duration": 0.5
        },
        {
          "name": "F5",
          "midi": 77,
          "time": 136.5,
          "velocity": 1,
          "duration": 0.5
        },
        {
          "name": "E5",
          "midi": 76,
          "time": 137,
          "velocity": 1,
          "duration": 0.25
        },
        {
          "name": "D5",
          "midi": 74,
          "time": 137.25,
          "velocity": 1,
          "duration": 0.25
        },
        {
          "name": "D5",
          "midi": 74,
          "time": 137.5,
          "velocity": 1,
          "duration": 0.25
        },
        {
          "name": "C5",
          "midi": 72,
          "time": 137.75,
          "velocity": 1,
          "duration": 0.25
        },
        {
          "name": "D5",
          "midi": 74,
          "time": 138,
          "velocity": 1,
          "duration": 0.25
        },
        {
          "name": "C5",
          "midi": 72,
          "time": 138.25,
          "velocity": 1,
          "duration": 0.25
        },
        {
          "name": "C5",
          "midi": 72,
          "time": 138.5,
          "velocity": 1,
          "duration": 0.5
        },
        {
          "name": "C5",
          "midi": 72,
          "time": 139,
          "velocity": 1,
          "duration": 0.5
        },
        {
          "name": "A4",
          "midi": 69,
          "time": 139.5,
          "velocity": 1,
          "duration": 0.25
        },
        {
          "name": "A#4",
          "midi": 70,
          "time": 139.75,
          "velocity": 1,
          "duration": 0.25
        },
        {
          "name": "C5",
          "midi": 72,
          "time": 140,
          "velocity": 1,
          "duration": 0.5
        },
        {
          "name": "F5",
          "midi": 77,
          "time": 140.5,
          "velocity": 1,
          "duration": 0.5
        },
        {
          "name": "G5",
          "midi": 79,
          "time": 141,
          "velocity": 1,
          "duration": 0.25
        },
        {
          "name": "F5",
          "midi": 77,
          "time": 141.25,
          "velocity": 1,
          "duration": 0.25
        },
        {
          "name": "E5",
          "midi": 76,
          "time": 141.5,
          "velocity": 1,
          "duration": 0.25
        },
        {
          "name": "D5",
          "midi": 74,
          "time": 141.75,
          "velocity": 1,
          "duration": 0.25
        },
        {
          "name": "D5",
          "midi": 74,
          "time": 142,
          "velocity": 1,
          "duration": 0.25
        },
        {
          "name": "E5",
          "midi": 76,
          "time": 142.25,
          "velocity": 1,
          "duration": 0.25
        },
        {
          "name": "F5",
          "midi": 77,
          "time": 142.5,
          "velocity": 1,
          "duration": 0.5
        },
        {
          "name": "F5",
          "midi": 77,
          "time": 143,
          "velocity": 1,
          "duration": 0.5
        },
        {
          "name": "G5",
          "midi": 79,
          "time": 143.5,
          "velocity": 1,
          "duration": 0.25
        },
        {
          "name": "A5",
          "midi": 81,
          "time": 143.75,
          "velocity": 1,
          "duration": 0.25
        },
        {
          "name": "A#5",
          "midi": 82,
          "time": 144,
          "velocity": 1,
          "duration": 0.25
        },
        {
          "name": "A#5",
          "midi": 82,
          "time": 144.25,
          "velocity": 1,
          "duration": 0.25
        },
        {
          "name": "A5",
          "midi": 81,
          "time": 144.5,
          "velocity": 1,
          "duration": 0.25
        },
        {
          "name": "G5",
          "midi": 79,
          "time": 144.75,
          "velocity": 1,
          "duration": 0.25
        },
        {
          "name": "G5",
          "midi": 79,
          "time": 145,
          "velocity": 1,
          "duration": 0.5
        },
        {
          "name": "F5",
          "midi": 77,
          "time": 145.5,
          "velocity": 1,
          "duration": 0.25
        },
        {
          "name": "G5",
          "midi": 79,
          "time": 145.75,
          "velocity": 1,
          "duration": 0.25
        },
        {
          "name": "A5",
          "midi": 81,
          "time": 146,
          "velocity": 1,
          "duration": 0.25
        },
        {
          "name": "A5",
          "midi": 81,
          "time": 146.25,
          "velocity": 1,
          "duration": 0.25
        },
        {
          "name": "G5",
          "midi": 79,
          "time": 146.5,
          "velocity": 1,
          "duration": 0.25
        },
        {
          "name": "F5",
          "midi": 77,
          "time": 146.75,
          "velocity": 1,
          "duration": 0.25
        },
        {
          "name": "F5",
          "midi": 77,
          "time": 147,
          "velocity": 1,
          "duration": 0.5
        },
        {
          "name": "D5",
          "midi": 74,
          "time": 147.5,
          "velocity": 1,
          "duration": 0.25
        },
        {
          "name": "C5",
          "midi": 72,
          "time": 147.75,
          "velocity": 1,
          "duration": 0.25
        },
        {
          "name": "D5",
          "midi": 74,
          "time": 148,
          "velocity": 1,
          "duration": 0.25
        },
        {
          "name": "F5",
          "midi": 77,
          "time": 148.25,
          "velocity": 1,
          "duration": 0.25
        },
        {
          "name": "F5",
          "midi": 77,
          "time": 148.5,
          "velocity": 1,
          "duration": 0.25
        },
        {
          "name": "E5",
          "midi": 76,
          "time": 148.75,
          "velocity": 1,
          "duration": 0.5
        },
        {
          "name": "E5",
          "midi": 76,
          "time": 149.25,
          "velocity": 1,
          "duration": 0.25
        },
        {
          "name": "F#5",
          "midi": 78,
          "time": 149.5,
          "velocity": 1,
          "duration": 0.25
        },
        {
          "name": "F#5",
          "midi": 78,
          "time": 149.75,
          "velocity": 1,
          "duration": 1
        },
        {
          "name": "A5",
          "midi": 81,
          "time": 151.5,
          "velocity": 1,
          "duration": 0.25
        },
        {
          "name": "A5",
          "midi": 81,
          "time": 151.75,
          "velocity": 1,
          "duration": 0.25
        },
        {
          "name": "B5",
          "midi": 83,
          "time": 152,
          "velocity": 1,
          "duration": 0.25
        },
        {
          "name": "A5",
          "midi": 81,
          "time": 152.25,
          "velocity": 1,
          "duration": 0.25
        },
        {
          "name": "F#5",
          "midi": 78,
          "time": 152.5,
          "velocity": 1,
          "duration": 0.25
        },
        {
          "name": "D5",
          "midi": 74,
          "time": 152.75,
          "velocity": 1,
          "duration": 0.5
        },
        {
          "name": "E5",
          "midi": 76,
          "time": 153.25,
          "velocity": 1,
          "duration": 0.25
        },
        {
          "name": "G5",
          "midi": 79,
          "time": 153.25,
          "velocity": 1,
          "duration": 0.25
        },
        {
          "name": "A5",
          "midi": 81,
          "time": 153.5,
          "velocity": 1,
          "duration": 0.25
        },
        {
          "name": "F#5",
          "midi": 78,
          "time": 153.5,
          "velocity": 1,
          "duration": 0.25
        },
        {
          "name": "A5",
          "midi": 81,
          "time": 153.75,
          "velocity": 1,
          "duration": 0.5
        },
        {
          "name": "F#5",
          "midi": 78,
          "time": 153.75,
          "velocity": 1,
          "duration": 0.5
        },
        {
          "name": "A5",
          "midi": 81,
          "time": 155.25,
          "velocity": 1,
          "duration": 0.25
        },
        {
          "name": "A5",
          "midi": 81,
          "time": 155.5,
          "velocity": 1,
          "duration": 0.25
        },
        {
          "name": "A5",
          "midi": 81,
          "time": 155.75,
          "velocity": 1,
          "duration": 0.25
        },
        {
          "name": "B5",
          "midi": 83,
          "time": 156,
          "velocity": 1,
          "duration": 0.25
        },
        {
          "name": "A5",
          "midi": 81,
          "time": 156.25,
          "velocity": 1,
          "duration": 0.25
        },
        {
          "name": "F#5",
          "midi": 78,
          "time": 156.5,
          "velocity": 1,
          "duration": 0.25
        },
        {
          "name": "D5",
          "midi": 74,
          "time": 156.75,
          "velocity": 1,
          "duration": 0.5
        },
        {
          "name": "E5",
          "midi": 76,
          "time": 157.25,
          "velocity": 1,
          "duration": 0.25
        },
        {
          "name": "G5",
          "midi": 79,
          "time": 157.25,
          "velocity": 1,
          "duration": 0.25
        },
        {
          "name": "F#5",
          "midi": 78,
          "time": 157.5,
          "velocity": 1,
          "duration": 0.25
        },
        {
          "name": "A5",
          "midi": 81,
          "time": 157.5,
          "velocity": 1,
          "duration": 0.25
        },
        {
          "name": "F#5",
          "midi": 78,
          "time": 157.75,
          "velocity": 1,
          "duration": 0.5
        },
        {
          "name": "A5",
          "midi": 81,
          "time": 157.75,
          "velocity": 1,
          "duration": 0.5
        },
        {
          "name": "A5",
          "midi": 81,
          "time": 159.25,
          "velocity": 1,
          "duration": 0.25
        },
        {
          "name": "A5",
          "midi": 81,
          "time": 159.5,
          "velocity": 1,
          "duration": 0.25
        },
        {
          "name": "A5",
          "midi": 81,
          "time": 159.75,
          "velocity": 1,
          "duration": 0.25
        },
        {
          "name": "B5",
          "midi": 83,
          "time": 160,
          "velocity": 1,
          "duration": 0.25
        },
        {
          "name": "A5",
          "midi": 81,
          "time": 160.25,
          "velocity": 1,
          "duration": 0.25
        },
        {
          "name": "F#5",
          "midi": 78,
          "time": 160.5,
          "velocity": 1,
          "duration": 0.25
        },
        {
          "name": "D5",
          "midi": 74,
          "time": 160.75,
          "velocity": 1,
          "duration": 0.5
        },
        {
          "name": "E5",
          "midi": 76,
          "time": 161.25,
          "velocity": 1,
          "duration": 0.25
        },
        {
          "name": "G5",
          "midi": 79,
          "time": 161.25,
          "velocity": 1,
          "duration": 0.25
        },
        {
          "name": "F#5",
          "midi": 78,
          "time": 161.5,
          "velocity": 1,
          "duration": 0.25
        },
        {
          "name": "A5",
          "midi": 81,
          "time": 161.5,
          "velocity": 1,
          "duration": 0.25
        },
        {
          "name": "F#5",
          "midi": 78,
          "time": 161.75,
          "velocity": 1,
          "duration": 0.5
        },
        {
          "name": "A5",
          "midi": 81,
          "time": 161.75,
          "velocity": 1,
          "duration": 0.5
        },
        {
          "name": "A5",
          "midi": 81,
          "time": 163.5,
          "velocity": 1,
          "duration": 0.25
        },
        {
          "name": "A5",
          "midi": 81,
          "time": 163.75,
          "velocity": 1,
          "duration": 0.25
        },
        {
          "name": "B5",
          "midi": 83,
          "time": 164,
          "velocity": 1,
          "duration": 0.25
        },
        {
          "name": "A5",
          "midi": 81,
          "time": 164.25,
          "velocity": 1,
          "duration": 0.25
        },
        {
          "name": "F#5",
          "midi": 78,
          "time": 164.5,
          "velocity": 1,
          "duration": 0.25
        },
        {
          "name": "D5",
          "midi": 74,
          "time": 164.75,
          "velocity": 1,
          "duration": 0.5
        },
        {
          "name": "E5",
          "midi": 76,
          "time": 165.25,
          "velocity": 1,
          "duration": 0.25
        },
        {
          "name": "G5",
          "midi": 79,
          "time": 165.25,
          "velocity": 1,
          "duration": 0.25
        },
        {
          "name": "F#5",
          "midi": 78,
          "time": 165.5,
          "velocity": 1,
          "duration": 0.25
        },
        {
          "name": "A5",
          "midi": 81,
          "time": 165.5,
          "velocity": 1,
          "duration": 0.25
        },
        {
          "name": "F#5",
          "midi": 78,
          "time": 165.75,
          "velocity": 1,
          "duration": 0.5
        },
        {
          "name": "A5",
          "midi": 81,
          "time": 165.75,
          "velocity": 1,
          "duration": 0.5
        },
        {
          "name": "A5",
          "midi": 81,
          "time": 167.25,
          "velocity": 1,
          "duration": 0.25
        },
        {
          "name": "A5",
          "midi": 81,
          "time": 167.5,
          "velocity": 1,
          "duration": 0.25
        },
        {
          "name": "A5",
          "midi": 81,
          "time": 167.75,
          "velocity": 1,
          "duration": 0.25
        },
        {
          "name": "B5",
          "midi": 83,
          "time": 168,
          "velocity": 1,
          "duration": 0.25
        },
        {
          "name": "A5",
          "midi": 81,
          "time": 168.25,
          "velocity": 1,
          "duration": 0.25
        },
        {
          "name": "F#5",
          "midi": 78,
          "time": 168.5,
          "velocity": 1,
          "duration": 0.25
        },
        {
          "name": "D5",
          "midi": 74,
          "time": 168.75,
          "velocity": 1,
          "duration": 0.5
        },
        {
          "name": "E5",
          "midi": 76,
          "time": 169.25,
          "velocity": 1,
          "duration": 0.25
        },
        {
          "name": "G5",
          "midi": 79,
          "time": 169.25,
          "velocity": 1,
          "duration": 0.25
        },
        {
          "name": "F#5",
          "midi": 78,
          "time": 169.5,
          "velocity": 1,
          "duration": 0.25
        },
        {
          "name": "A5",
          "midi": 81,
          "time": 169.5,
          "velocity": 1,
          "duration": 0.25
        },
        {
          "name": "F#5",
          "midi": 78,
          "time": 169.75,
          "velocity": 1,
          "duration": 0.5
        },
        {
          "name": "A5",
          "midi": 81,
          "time": 169.75,
          "velocity": 1,
          "duration": 0.5
        },
        {
          "name": "G5",
          "midi": 79,
          "time": 171.25,
          "velocity": 1,
          "duration": 0.25
        },
        {
          "name": "A5",
          "midi": 81,
          "time": 171.5,
          "velocity": 1,
          "duration": 0.25
        },
        {
          "name": "A5",
          "midi": 81,
          "time": 171.75,
          "velocity": 1,
          "duration": 0.5
        },
        {
          "name": "G5",
          "midi": 79,
          "time": 173.25,
          "velocity": 1,
          "duration": 0.25
        },
        {
          "name": "F#5",
          "midi": 78,
          "time": 173.5,
          "velocity": 1,
          "duration": 0.25
        },
        {
          "name": "F#5",
          "midi": 78,
          "time": 173.75,
          "velocity": 1,
          "duration": 0.5
        }
      ],
      "controlChanges": {
        "7": [
          {
            "number": 7,
            "time": 0,
            "value": 1
          },
          {
            "number": 7,
            "time": 0,
            "value": 1
          },
          {
            "number": 7,
            "time": 0,
            "value": 1
          }
        ],
        "10": [
          {
            "number": 10,
            "time": 0,
            "value": 0.5039370078740157
          },
          {
            "number": 10,
            "time": 0,
            "value": 0.5039370078740157
          }
        ],
        "32": [
          {
            "number": 32,
            "time": 0,
            "value": 0
          },
          {
            "number": 32,
            "time": 0,
            "value": 0
          }
        ],
        "127": [
          {
            "number": 127,
            "time": 175.99947916666667,
            "value": 0
          }
        ]
      },
      "id": 1,
      "name": "tone 3",
      "instrumentNumber": 53,
      "instrument": "voice oohs",
      "instrumentFamily": "ensemble",
      "channelNumber": 0,
      "isPercussion": false
    }
  ]
}